<?xml version="1.0" standalone="no"?>
<!DOCTYPE svg PUBLIC "-//W3C//DTD SVG 20010904//EN"
 "http://www.w3.org/TR/2001/REC-SVG-20010904/DTD/svg10.dtd">
<svg version="1.0" xmlns="http://www.w3.org/2000/svg"
 width="500.000000pt" height="500.000000pt" viewBox="0 0 500.000000 500.000000"
 preserveAspectRatio="xMidYMid meet">

<g transform="translate(0.000000,500.000000) scale(0.100000,-0.100000)"
fill="#000000" stroke="none">
<path d="M965 4107 c60 -258 344 -430 787 -477 51 -5 120 -10 153 -11 l60 -2
-45 -8 c-177 -31 -521 24 -729 118 -103 46 -101 46 -91 18 59 -156 165 -237
373 -284 117 -27 418 -2 530 44 9 4 17 3 17 -2 0 -11 -105 -44 -220 -69 -106
-23 -351 -23 -444 -1 -38 10 -71 15 -74 12 -7 -7 44 -78 79 -109 16 -15 35
-24 41 -20 6 4 8 3 5 -3 -9 -15 66 -49 141 -63 78 -16 187 -1 315 42 82 28
203 85 235 110 8 7 12 7 12 0 0 -13 -131 -95 -202 -126 -108 -48 -236 -85
-296 -87 -20 -1 -48 -4 -62 -8 l-25 -7 27 -18 c53 -35 131 -56 208 -56 94 0
149 17 269 82 189 102 250 126 347 137 l61 7 7 -96 c3 -52 6 -199 6 -325 l0
-231 33 -12 c71 -26 66 -49 69 325 l3 338 40 -3 c104 -8 207 -48 410 -162 74
-41 145 -60 230 -60 46 0 97 5 112 11 51 21 114 53 119 60 2 4 -22 10 -53 14
-68 7 -209 41 -263 63 -94 37 -250 128 -266 154 -7 12 -6 11 56 -27 42 -26
176 -82 245 -102 27 -9 75 -16 106 -17 31 0 55 -4 52 -8 -15 -26 162 9 230 45
57 30 141 112 150 146 4 15 -3 15 -67 -2 -98 -26 -336 -28 -456 -3 -109 22
-220 57 -220 69 0 5 8 6 18 2 143 -59 471 -72 617 -23 138 46 237 138 285 262
8 22 4 21 -95 -20 -178 -73 -437 -125 -615 -123 -153 2 -172 14 -37 22 225 15
426 61 576 133 165 80 286 222 307 359 l7 49 -29 -18 c-16 -11 -45 -31 -64
-46 -19 -15 -46 -33 -60 -40 -14 -7 -27 -16 -30 -19 -4 -5 -22 -15 -110 -63
-81 -43 -296 -122 -435 -158 -103 -26 -181 -38 -329 -50 -151 -11 -217 -40
-253 -110 -12 -25 -25 -57 -28 -72 -9 -48 -94 -128 -135 -128 -6 0 -10 57 -10
165 l0 165 44 43 c31 29 46 54 51 79 20 106 -52 198 -155 198 -103 0 -175 -92
-155 -197 5 -27 20 -50 51 -79 l44 -41 0 -167 c0 -109 -4 -166 -10 -166 -20 0
-65 28 -92 57 -15 15 -36 55 -49 88 -43 118 -100 152 -277 165 -176 12 -301
37 -465 90 -208 69 -390 159 -538 266 -26 19 -49 34 -52 34 -2 0 1 -24 8 -53z"/>
<path d="M2120 3095 c-183 -57 -230 -295 -83 -424 67 -60 150 -94 353 -146
102 -26 203 -56 225 -65 129 -56 126 -155 -6 -244 l-50 -33 51 -37 51 -37 34
21 c51 32 120 113 133 158 42 139 -34 246 -216 306 -42 14 -139 41 -215 60
-134 34 -235 72 -260 98 -48 49 -62 122 -32 165 13 19 19 20 52 11 78 -21 193
7 193 47 0 45 -65 108 -127 124 -50 13 -46 13 -103 -4z m175 -91 c17 -13 18
-16 5 -24 -20 -13 -30 -9 -48 18 -13 20 -13 22 4 22 11 0 28 -7 39 -16z"/>
<path d="M2741 3092 c-39 -20 -87 -75 -96 -113 -5 -21 -1 -28 22 -38 40 -20
123 -22 156 -5 15 8 25 19 22 24 -15 24 16 7 40 -21 23 -28 26 -39 23 -95 -1
-34 -5 -62 -8 -61 -3 1 -18 -10 -33 -26 -44 -43 -118 -77 -237 -107 l-45 -12
43 -15 c24 -8 65 -27 93 -43 l50 -30 70 36 c134 67 209 164 209 269 0 60 -9
97 -21 89 -5 -3 -6 1 -3 9 9 24 -58 99 -115 129 -62 32 -119 36 -170 10z m9
-81 c0 -15 -30 -34 -57 -36 l-25 -1 27 23 c26 23 55 30 55 14z"/>
<path d="M2210 2503 c-34 -44 -50 -91 -50 -149 0 -120 69 -193 278 -294 141
-69 172 -96 172 -151 0 -30 -8 -46 -38 -78 l-37 -39 25 -21 c32 -26 45 -26 83
1 77 55 109 128 88 200 -21 70 -90 127 -243 201 -158 77 -198 113 -198 178 0
51 27 90 81 117 l40 20 -33 7 c-18 4 -52 13 -76 21 -59 19 -67 18 -92 -13z"/>
<path d="M2458 2348 l3 -129 34 -15 c19 -8 37 -14 40 -14 8 0 6 258 -3 264 -5
3 -20 7 -35 10 -15 2 -30 7 -34 9 -5 3 -7 -53 -5 -125z"/>
<path d="M2307 2038 c-41 -54 -50 -96 -33 -152 16 -51 62 -110 79 -99 6 3 7 1
3 -5 -4 -7 28 -35 81 -70 114 -76 119 -83 116 -149 -3 -51 -2 -53 18 -43 34
19 61 71 55 109 -8 50 -27 73 -126 148 -126 96 -146 148 -83 215 30 32 31 29
-24 57 -55 27 -58 27 -86 -11z"/>
<path d="M2473 1918 c6 -65 14 -97 25 -105 8 -7 17 -11 19 -9 2 2 6 41 9 88 6
89 2 99 -41 112 -20 6 -21 4 -12 -86z"/>
<path d="M2391 1681 c-6 -10 -7 -21 -4 -25 3 -3 0 -6 -7 -6 -9 0 -11 -10 -7
-36 7 -42 29 -79 56 -93 18 -10 18 -8 9 32 -9 40 -7 73 7 108 4 10 -3 19 -19
27 -22 10 -27 9 -35 -7z"/>
<path d="M2472 1550 c5 -107 17 -146 37 -125 5 6 10 39 11 75 4 116 2 126 -26
145 l-27 17 5 -112z"/>
<path d="M500 1016 l0 -176 74 0 c107 0 135 8 157 44 26 42 24 78 -7 111 -24
26 -24 28 -7 47 26 28 23 92 -5 120 -18 19 -35 23 -117 26 l-95 4 0 -176z
m151 104 c11 -6 19 -21 19 -35 0 -28 -26 -45 -69 -45 -30 0 -31 1 -31 45 0 44
1 45 31 45 17 0 39 -5 50 -10z m11 -147 c40 -36 15 -73 -49 -73 l-43 0 0 45 0
45 37 0 c20 0 45 -7 55 -17z"/>
<path d="M790 1065 c0 -173 14 -203 102 -226 38 -10 54 -10 88 1 73 24 80 42
80 206 l0 144 -30 0 -30 0 0 -129 c0 -137 -4 -152 -51 -166 -29 -9 -76 12 -83
38 -3 12 -6 75 -6 140 l0 117 -35 0 -35 0 0 -125z"/>
<path d="M1174 1181 c-48 -21 -72 -103 -41 -141 17 -21 64 -50 81 -50 55 0 97
-60 61 -87 -28 -20 -60 -16 -94 13 -25 21 -34 23 -51 14 -28 -15 -25 -34 10
-64 85 -71 220 -25 220 73 0 49 -25 75 -100 102 -66 24 -87 46 -67 72 21 27
52 29 81 6 24 -19 30 -20 52 -9 30 17 30 21 -1 50 -27 26 -112 37 -151 21z"/>
<path d="M1400 1015 l0 -175 35 0 35 0 0 175 0 175 -35 0 -35 0 0 -175z"/>
<path d="M1530 1015 l0 -175 35 0 34 0 3 112 3 112 72 -112 c70 -108 73 -112
108 -112 l35 0 0 175 0 175 -35 0 -34 0 -3 -112 -3 -112 -74 112 c-70 106 -76
112 -107 112 l-34 0 0 -175z"/>
<path d="M1880 1015 l0 -175 110 0 110 0 0 30 0 29 -77 3 -78 3 0 40 0 40 68
3 c63 3 67 4 67 27 0 23 -4 24 -67 27 l-68 3 0 40 0 40 73 3 72 3 0 29 0 30
-105 0 -105 0 0 -175z"/>
<path d="M2200 1178 c-73 -39 -62 -146 20 -177 16 -6 44 -16 60 -22 17 -7 36
-21 42 -32 9 -17 7 -24 -12 -39 -31 -25 -63 -23 -99 8 -25 21 -34 23 -51 14
-25 -13 -25 -15 0 -50 23 -32 93 -55 139 -45 17 4 45 18 61 32 26 21 30 32 30
73 0 42 -4 51 -27 68 -16 10 -44 24 -63 31 -80 27 -104 67 -54 90 22 10 32 8
61 -9 26 -15 39 -18 54 -10 25 14 24 22 -6 50 -30 28 -116 38 -155 18z"/>
<path d="M2495 1181 c-49 -22 -71 -76 -50 -126 15 -38 20 -41 99 -70 52 -18
61 -26 64 -48 6 -51 -74 -62 -117 -16 -16 17 -23 19 -40 10 -29 -16 -26 -35 9
-65 39 -33 91 -42 141 -26 50 17 69 39 76 87 7 53 -29 96 -92 112 -76 19 -103
65 -54 91 18 10 47 2 80 -22 13 -9 21 -8 38 4 l22 16 -24 27 c-19 23 -33 29
-78 31 -30 2 -63 0 -74 -5z"/>
<path d="M2730 1015 l0 -175 35 0 35 0 0 75 0 75 70 0 70 0 0 -75 0 -75 35 0
35 0 0 175 0 175 -35 0 -35 0 0 -70 0 -70 -70 0 -70 0 0 70 0 70 -35 0 -35 0
0 -175z"/>
<path d="M3070 1015 l0 -175 110 0 110 0 0 30 0 29 -77 3 -78 3 0 40 0 40 68
3 c63 3 67 4 67 27 0 23 -4 24 -67 27 l-68 3 0 40 0 40 73 3 72 3 0 29 0 30
-105 0 -105 0 0 -175z"/>
<path d="M3441 1168 c-24 -57 -110 -285 -116 -306 -6 -22 -4 -23 31 -20 34 3
40 7 48 36 l9 32 72 0 72 0 9 -32 c8 -29 14 -33 47 -36 20 -2 37 -1 37 1 0 2
-29 80 -64 173 l-64 169 -36 3 c-30 3 -38 -1 -45 -20z m69 -129 c28 -76 27
-79 -25 -79 -25 0 -45 4 -45 10 0 8 12 48 36 119 6 19 12 11 34 -50z"/>
<path d="M3690 1015 l0 -175 105 0 105 0 0 30 0 30 -70 0 -70 0 0 145 0 145
-35 0 -35 0 0 -175z"/>
<path d="M3870 1155 l0 -35 50 0 50 0 0 -140 0 -140 35 0 35 0 0 140 0 140 50
0 50 0 0 35 0 35 -135 0 -135 0 0 -35z"/>
<path d="M4190 1016 l0 -176 35 0 35 0 0 75 0 75 70 0 70 0 0 -75 0 -75 35 0
35 0 0 175 0 175 -35 0 -35 0 0 -70 0 -70 -70 0 -69 0 -3 68 -3 67 -32 3 -33
3 0 -175z"/>
</g>
</svg>
